<svg width="56" height="59" viewBox="0 0 56 59" fill="none" xmlns="http://www.w3.org/2000/svg">
<path d="M28.7969 0.24826V5.10839C28.8159 5.10814 28.8348 5.10714 28.8538 5.10689C29.5853 5.09814 30.3166 5.12201 31.0469 5.17139V0.24826H28.7969ZM37.4087 2.05326L36.2226 2.86951L37.4982 4.72289L38.6844 3.90651L37.4087 2.05326ZM13.7808 4.20376L12.9455 6.29314L14.2825 6.82751L15.1176 4.73839L13.7808 4.20376ZM28.9195 7.35414C25.8629 7.38739 22.8458 8.00301 19.9726 9.42151C18.3966 10.1996 16.0159 12.2555 14.5495 14.0331C14.0095 14.6879 13.6319 15.2864 13.4158 15.7164L46.1808 17.3989C45.9959 16.3783 45.5919 15.1599 44.9714 14.0153C43.8696 11.9824 42.1666 10.1905 40.6826 9.64414C36.8442 8.23114 32.8492 7.31139 28.9194 7.35414H28.9195ZM4.55937 9.18751L3.24525 9.77564L4.16412 11.8294L5.47863 11.2413L4.5595 9.18751H4.55937ZM21.69 10.9329L21.8372 12.3653L19.599 12.5953L19.4517 11.1628L21.69 10.9329ZM53.609 12.0864L52.2371 13.8699L53.3785 14.7475L54.7504 12.9644L53.609 12.0864ZM11.8085 17.8873C9.5235 18.5505 8.484 19.8693 7.79037 21.5801C7.28612 22.8241 7.041 24.2424 6.81625 25.6335C8.13212 25.5959 9.8205 25.5724 11.8013 25.565C16.0206 25.5491 21.494 25.604 27.0846 25.7418C32.6753 25.8794 38.3806 26.0995 43.0704 26.4163C46.0429 26.617 48.5435 26.8263 50.4459 27.1181C50.3286 25.9981 50.2859 24.9403 50.0887 23.9783C49.7681 22.4136 49.1656 21.0745 47.183 19.7034L11.8085 17.8871V17.8873ZM45.0099 20.5784L46.3526 21.0981L45.5404 23.1965L44.1979 22.6768L45.0099 20.5784ZM5.82438 20.5833L3.70475 21.3383L4.18787 22.6945L6.3075 21.9398L5.82438 20.5833ZM16.0863 22.0123L16.6744 23.3261L14.6206 24.2456L14.0326 22.9309L16.0864 22.0121L16.0863 22.0123ZM13.4391 27.8123C12.8778 27.812 12.3337 27.813 11.8097 27.815C9.71337 27.8229 7.93225 27.8485 6.61925 27.8896C5.96275 27.9103 5.42263 27.9348 5.0275 27.9619C4.63963 27.9885 4.332 28.0434 4.39925 28.0244L4.39712 28.0249C3.9655 28.1384 3.55862 28.4858 3.21712 29.1145C2.87562 29.7433 2.64838 30.6154 2.60638 31.4903C2.56425 32.3651 2.7085 33.239 2.99013 33.8686C3.25888 34.4696 3.599 34.8106 4.03212 34.9656C15.274 36.3558 27.566 36.9821 37.6118 37.1091C38.1674 33.5504 39.8705 30.3306 43.0025 30.5364C47.4085 30.8259 46.9268 34.0801 46.909 37.0766C49.494 37.0191 51.7425 36.9208 53.5431 36.7889L53.5494 36.7884L53.5556 36.7881C54.0801 36.7555 54.2731 36.574 54.5119 36.0218C54.7505 35.4694 54.85 34.5589 54.7323 33.617C54.6146 32.6751 54.2909 31.7049 53.8636 31.011C53.4364 30.3171 52.9536 29.9589 52.5531 29.8886L52.4601 29.8724L52.3713 29.8409C51.2934 29.4584 47.556 28.9744 42.9188 28.6611C38.2816 28.3479 32.5984 28.1281 27.0291 27.991C22.1561 27.871 17.3686 27.814 13.4391 27.8123ZM28.3575 31.1063L30.4469 31.9414L29.9123 33.2784L27.8231 32.4431L28.3575 31.1063ZM5.205 37.374C4.91475 38.4591 4.94725 39.672 5.29088 40.7429C5.78238 42.2744 6.81337 43.4261 8.27475 43.7403C23.2463 46.0191 37.5629 46.6046 51.4044 45.9403C52.3335 44.4948 52.8326 42.7703 52.7586 41.3455C52.711 40.4264 52.4869 39.6849 52.0486 39.1375C42.0169 39.6958 22.6397 39.4169 5.205 37.374ZM12.713 41.079L14.0555 41.5989L13.2435 43.6973L11.9005 43.1775L12.713 41.0791V41.079ZM48.4396 43.4828L49.4128 44.5438L47.7545 46.0645L46.7814 45.0034L48.4396 43.4826V43.4828ZM2.38338 45.0198L0.264 45.7748L0.747 47.131L2.86662 46.3763L2.38338 45.0198ZM10.4249 46.3285C10.6981 46.8541 10.9469 47.364 11.2086 47.8328C11.913 49.094 12.6476 50.0908 14.3185 50.8443C20.9969 53.8561 26.9051 54.9178 34.2875 54.571L33.9069 54.419L34.4415 53.0818L36.5306 53.917L36.3203 54.4433C36.9753 54.3924 37.641 54.3326 38.3219 54.2623C40.5241 54.0343 42.6365 52.8054 44.2289 51.3133C45.2541 50.3525 46.0094 49.275 46.4796 48.4008L46.255 48.384C37.7626 48.5933 29.0833 48.3206 20.1842 47.4756L20.8461 47.7318L20.034 49.8301L18.691 49.3105L19.4294 47.404C16.4208 47.1079 13.4186 46.7493 10.4249 46.3286V46.3285ZM2.48787 48.9016L1.116 50.685L2.25725 51.563L3.62913 49.7795L2.48787 48.9016ZM54.91 51.0994L53.547 51.5638L54.2726 53.6936L55.6356 53.2293L54.91 51.0993V51.0994ZM45.058 55.2221L44.2228 57.3115L45.5597 57.846L46.3949 55.7566L45.058 55.2221ZM14.8654 56.5901L14.3456 57.9329L16.4438 58.7451L16.9635 57.4024L14.8654 56.5901Z" fill="#D4ED5A"/>
</svg>
