<svg width="24" height="24" viewBox="0 0 24 24" fill="none" xmlns="http://www.w3.org/2000/svg">
<path d="M20.8672 7.33325H3.11182C2.84917 7.33325 2.5891 7.38498 2.34645 7.48549C2.1038 7.586 1.88332 7.73332 1.6976 7.91904C1.51189 8.10476 1.36457 8.32523 1.26406 8.56789C1.16355 8.81054 1.11182 9.07061 1.11182 9.33325C1.11182 9.5959 1.16355 9.85597 1.26406 10.0986C1.36457 10.3413 1.51189 10.5617 1.6976 10.7475C1.88332 10.9332 2.1038 11.0805 2.34645 11.181C2.5891 11.2815 2.84917 11.3333 3.11182 11.3333C3.23315 11.3333 3.34982 11.3179 3.46515 11.2979L3.45448 11.3333L3.87915 20.6693C3.94515 22.1346 5.19982 23.3333 6.66648 23.3333H17.3332C18.7998 23.3333 20.0545 22.1346 20.1212 20.6693L20.5452 11.3333L20.5352 11.2999C20.6438 11.3179 20.7532 11.3333 20.8672 11.3333C21.1298 11.3333 21.3899 11.2815 21.6325 11.181C21.8752 11.0805 22.0956 10.9332 22.2814 10.7475C22.4671 10.5617 22.6144 10.3413 22.7149 10.0986C22.8154 9.85597 22.8671 9.5959 22.8671 9.33325C22.8671 9.07061 22.8154 8.81054 22.7149 8.56789C22.6144 8.32523 22.4671 8.10476 22.2814 7.91904C22.0956 7.73332 21.8752 7.586 21.6325 7.48549C21.3899 7.38498 21.1298 7.33325 20.8672 7.33325Z" fill="#E1E8ED"/>
<path d="M19.1119 11.3333V22.6593C19.6873 22.1699 20.0746 21.4619 20.1066 20.6686L20.5599 11.3333H19.1119ZM15.1119 11.3333H17.1119V23.3333H15.1119V11.3333ZM11.1119 23.3333V11.3333H13.1119V23.3333H11.1119ZM7.11194 11.3333H9.11194V23.3333H7.11194V11.3333ZM3.43994 11.3333L3.89327 20.6686C3.92927 21.5633 4.41061 22.3539 5.11194 22.8379V11.3333H3.43994Z" fill="#DA2F47"/>
<path opacity="0.6" d="M3.43994 11.3333L3.50461 12.6666H20.4946L20.5599 11.3333H3.43994Z" fill="#99AAB5"/>
<path d="M20.6195 7.37991C20.6482 7.25724 20.6669 7.13124 20.6669 6.99991C20.6669 6.55058 20.4869 6.14391 20.1975 5.84458C20.4789 5.66724 20.6669 5.35658 20.6669 4.99991C20.6666 4.83657 20.6263 4.67577 20.5496 4.53159C20.4728 4.3874 20.3619 4.26421 20.2266 4.17279C20.0912 4.08136 19.9355 4.02449 19.7731 4.00713C19.6107 3.98978 19.4465 4.01248 19.2949 4.07324C19.2494 3.90526 19.1607 3.75212 19.0377 3.62907C18.9146 3.50602 18.7615 3.41736 18.5935 3.37191C18.6543 3.22029 18.677 3.05609 18.6596 2.89368C18.6423 2.73126 18.5854 2.57556 18.494 2.4402C18.4026 2.30484 18.2794 2.19394 18.1352 2.11718C17.991 2.04043 17.8302 2.00017 17.6669 1.99991C17.5395 1.99991 17.4189 2.02591 17.3069 2.06924C17.273 1.84806 17.195 1.63598 17.0773 1.44568C16.9596 1.25538 16.8047 1.09079 16.6219 0.961742C16.4391 0.832697 16.2322 0.741856 16.0135 0.694656C15.7948 0.647457 15.5688 0.64487 15.3491 0.687049C15.1293 0.729228 14.9204 0.815307 14.7347 0.940134C14.549 1.06496 14.3904 1.22597 14.2684 1.41352C14.1463 1.60107 14.0634 1.81132 14.0246 2.03166C13.9857 2.25201 13.9917 2.47793 14.0422 2.69591C13.6155 2.77124 13.2489 3.00858 13.0002 3.34191C12.8462 3.13294 12.6454 2.96298 12.4138 2.8457C12.1823 2.72841 11.9264 2.66706 11.6669 2.66658C11.2248 2.66658 10.8009 2.84217 10.4883 3.15473C10.1758 3.46729 10.0002 3.89122 10.0002 4.33324L10.0009 4.34124C9.79585 4.18425 9.55671 4.07781 9.30285 4.03058C9.23269 3.6478 9.03059 3.30172 8.73169 3.05251C8.4328 2.80331 8.05601 2.66675 7.66685 2.66658C7.27672 2.66685 6.89909 2.80419 6.59993 3.0546C6.30078 3.30502 6.09912 3.65258 6.03019 4.03658C5.91022 4.01487 5.78874 4.00261 5.66685 3.99991C5.04802 3.99991 4.45452 4.24574 4.01694 4.68333C3.57935 5.12091 3.33352 5.71441 3.33352 6.33324C3.33352 6.69658 3.42352 7.03591 3.57152 7.34258C3.31118 7.36018 3.06812 7.47918 2.89455 7.67403C2.72098 7.86887 2.63075 8.12401 2.64323 8.38465C2.65571 8.64529 2.76992 8.89064 2.96131 9.068C3.1527 9.24537 3.40602 9.3406 3.66685 9.33324H20.3335C20.574 9.33482 20.8069 9.24943 20.9893 9.09281C21.1717 8.93619 21.2914 8.71889 21.3262 8.48099C21.3611 8.24308 21.3087 8.0006 21.1788 7.79825C21.049 7.5959 20.8503 7.44733 20.6195 7.37991Z" fill="#FFD983"/>
<path d="M18.6667 6.00008C19.0349 6.00008 19.3333 5.7016 19.3333 5.33341C19.3333 4.96522 19.0349 4.66675 18.6667 4.66675C18.2985 4.66675 18 4.96522 18 5.33341C18 5.7016 18.2985 6.00008 18.6667 6.00008Z" fill="#FFAC33"/>
<path d="M16.3335 4.66675C16.8858 4.66675 17.3335 4.21903 17.3335 3.66675C17.3335 3.11446 16.8858 2.66675 16.3335 2.66675C15.7812 2.66675 15.3335 3.11446 15.3335 3.66675C15.3335 4.21903 15.7812 4.66675 16.3335 4.66675Z" fill="#FFAC33"/>
<path d="M8.00016 5.33333C8.36835 5.33333 8.66683 5.03486 8.66683 4.66667C8.66683 4.29848 8.36835 4 8.00016 4C7.63197 4 7.3335 4.29848 7.3335 4.66667C7.3335 5.03486 7.63197 5.33333 8.00016 5.33333Z" fill="#FFAC33"/>
<path d="M20.6667 8.33349C20.6667 8.09708 20.5828 7.86833 20.4299 7.688C20.277 7.50767 20.0651 7.38747 19.8319 7.34881C19.5986 7.31015 19.3592 7.35554 19.1564 7.4769C18.9535 7.59826 18.8003 7.78771 18.724 8.01149C18.7047 8.01016 18.6873 8.00016 18.6667 8.00016C18.4899 8.00016 18.3203 8.0704 18.1953 8.19542C18.0702 8.32044 18 8.49001 18 8.66682H20.6053C20.6427 8.56216 20.6667 8.45082 20.6667 8.33349ZM6.33333 8.00016C6.46533 8.00016 6.59 8.02682 6.70533 8.07349C6.76751 7.83904 6.913 7.63528 7.11456 7.50036C7.31613 7.36543 7.55995 7.30859 7.80041 7.34046C8.04086 7.37234 8.26145 7.49075 8.4209 7.67353C8.58035 7.85631 8.66772 8.09094 8.66667 8.33349C8.66667 8.45082 8.64267 8.56216 8.60533 8.66682H11.3947C11.3552 8.56007 11.3344 8.4473 11.3333 8.33349C11.3333 8.06827 11.4387 7.81392 11.6262 7.62638C11.8138 7.43885 12.0681 7.33349 12.3333 7.33349C12.4913 7.33349 12.6393 7.37349 12.772 7.43882C12.7036 7.30266 12.6675 7.15254 12.6667 7.00016C12.6661 6.85244 12.6983 6.70643 12.7608 6.57263C12.8234 6.43883 12.9149 6.32055 13.0286 6.2263C13.1423 6.13205 13.2756 6.06416 13.4187 6.02753C13.5618 5.9909 13.7112 5.98642 13.8562 6.01443C14.0013 6.04243 14.1383 6.10222 14.2575 6.18949C14.3767 6.27677 14.475 6.38936 14.5455 6.51918C14.616 6.649 14.6568 6.79282 14.6651 6.9403C14.6734 7.08779 14.6489 7.23527 14.5933 7.37216C15.0187 7.48682 15.3333 7.87149 15.3333 8.33349C15.3333 8.45082 15.3093 8.56216 15.272 8.66682H17.2507L16.8733 8.33349C17.1533 8.08882 17.3333 7.73416 17.3333 7.33349C17.3333 6.97987 17.1929 6.64073 16.9428 6.39068C16.6928 6.14063 16.3536 6.00016 16 6.00016C15.7575 6.00116 15.5199 6.06898 15.3133 6.19616C15.3233 6.13149 15.3333 6.06749 15.3333 6.00016C15.3339 5.69566 15.2301 5.40017 15.0392 5.16295C14.8483 4.92572 14.5819 4.7611 14.2843 4.69654C13.9867 4.63197 13.676 4.67136 13.404 4.80813C13.1319 4.94491 12.915 5.1708 12.7893 5.44816C12.6487 5.37394 12.4923 5.33462 12.3333 5.33349C12.17 5.33375 12.0092 5.37401 11.865 5.45076C11.7208 5.52752 11.5976 5.63842 11.5062 5.77378C11.4148 5.90914 11.3579 6.06484 11.3406 6.22726C11.3232 6.38967 11.3459 6.55387 11.4067 6.70549C10.9813 6.82082 10.6667 7.20549 10.6667 7.66682C10.6667 7.79882 10.6933 7.92349 10.74 8.03882C10.5889 8.07954 10.4496 8.15538 10.3333 8.26016C10.1512 8.09351 9.91351 8.0008 9.66667 8.00016C9.50867 8.00016 9.36067 8.04016 9.22733 8.10616C9.29333 7.97282 9.33333 7.82482 9.33333 7.66682C9.33308 7.50348 9.29281 7.34269 9.21606 7.1985C9.13931 7.05431 9.0284 6.93112 8.89304 6.8397C8.75768 6.74828 8.60199 6.6914 8.43957 6.67405C8.27715 6.6567 8.11295 6.67939 7.96133 6.74016C7.92607 6.60872 7.86428 6.4859 7.77977 6.37924C7.69525 6.27258 7.58981 6.18434 7.46992 6.11996C7.35003 6.05558 7.21823 6.01642 7.08264 6.00488C6.94705 5.99334 6.81053 6.00967 6.68149 6.05287C6.55244 6.09606 6.4336 6.16521 6.33228 6.25606C6.23096 6.3469 6.14931 6.45752 6.09234 6.5811C6.03537 6.70469 6.0043 6.83862 6.00103 6.97466C5.99776 7.11071 6.02236 7.24598 6.07333 7.37216C5.92224 7.41287 5.7829 7.48871 5.66667 7.59349C5.48456 7.42685 5.24684 7.33413 5 7.33349C4.73478 7.33349 4.48043 7.43885 4.29289 7.62638C4.10536 7.81392 4 8.06827 4 8.33349C4 8.45082 4.024 8.56216 4.06133 8.66682H5.39467C5.53267 8.27949 5.89867 8.00016 6.33333 8.00016Z" fill="#FFAC33"/>
<path d="M2.6665 8.66675V9.33341C2.6665 9.51023 2.73674 9.67979 2.86177 9.80482C2.98679 9.92984 3.15636 10.0001 3.33317 10.0001H20.6665C20.8433 10.0001 21.0129 9.92984 21.1379 9.80482C21.2629 9.67979 21.3332 9.51023 21.3332 9.33341V8.66675H2.6665Z" fill="white"/>
</svg>
